<?xml version="1.0" standalone="no"?>
<!DOCTYPE svg PUBLIC "-//W3C//DTD SVG 20010904//EN"
 "http://www.w3.org/TR/2001/REC-SVG-20010904/DTD/svg10.dtd">
<svg version="1.0" xmlns="http://www.w3.org/2000/svg"
 width="152" height="64" viewBox="0 0 152.000000 64.000000"
 preserveAspectRatio="xMidYMid meet">

<g transform="translate(0.000000,64.000000) scale(0.100000,-0.100000)"
fill="#000000" stroke="none">
<path d="M2 548 c-1 -63 2 -95 11 -100 9 -6 9 -8 0 -8 -8 0 -12 -59 -12 -220
l-1 -220 760 0 760 0 0 320 0 320 -254 0 c-194 0 -256 -3 -259 -12 -4 -10 -6
-10 -6 0 -1 9 -88 12 -400 12 -372 0 -400 -1 -404 -17 -4 -17 -5 -17 -6 0 -1
14 -11 17 -55 17 -38 0 -56 -4 -59 -14 -4 -9 1 -16 11 -18 11 -3 8 -6 -10 -9
-24 -5 -26 -4 -17 18 8 21 6 23 -25 23 l-33 0 -1 -92z m645 50 c-3 -7 -5 -2
-5 12 0 14 2 19 5 13 2 -7 2 -19 0 -25z m-450 -20 c-3 -8 -6 -5 -6 6 -1 11 2
17 5 13 3 -3 4 -12 1 -19z m198 -68 c-4 -6 5 -10 19 -10 l26 0 0 -115 c0 -70
4 -115 10 -115 6 0 10 -11 10 -25 0 -14 -4 -25 -10 -25 -5 0 -10 -11 -10 -25
0 -22 -4 -25 -40 -25 -36 0 -40 3 -40 25 0 23 -4 25 -45 25 -42 0 -45 2 -45
28 0 15 12 78 27 140 26 109 28 112 54 112 16 0 31 5 34 10 3 6 8 10 11 10 3
0 2 -4 -1 -10z m250 -23 c13 -10 18 -26 17 -63 0 -27 -1 -95 -1 -151 l1 -103
-39 0 -39 0 3 70 c1 41 -1 70 -7 70 -6 0 -10 -31 -10 -70 l0 -70 -35 0 -35 0
0 165 0 165 63 0 c37 0 71 -6 82 -13z m595 -17 c0 -16 5 -30 10 -30 6 0 10
-11 10 -25 0 -14 -4 -25 -10 -25 -6 0 -10 -35 -10 -85 0 -54 4 -85 11 -85 6 0
9 -10 7 -23 -2 -18 -10 -23 -42 -25 -24 -2 -42 2 -47 10 -5 7 -9 57 -9 111 0
58 -4 97 -10 97 -5 0 -10 11 -10 25 0 14 5 25 10 25 6 0 10 14 10 30 0 28 2
30 40 30 38 0 40 -2 40 -30z m-376 -42 c9 -13 16 -43 16 -70 l0 -48 -45 0 -45
0 1 -42 c1 -39 2 -40 8 -13 5 26 11 30 44 33 36 3 37 2 37 -31 0 -20 -9 -46
-21 -61 -17 -21 -29 -26 -65 -26 -72 0 -84 20 -84 140 0 122 11 140 89 140 40
0 53 -4 65 -22z m222 5 c9 -13 13 -55 14 -140 l0 -123 -40 0 -40 0 0 117 c0
64 -2 114 -5 112 -2 -3 -5 -43 -5 -90 -2 -130 -5 -139 -46 -139 l-34 0 0 140
0 140 71 0 c57 0 75 -4 85 -17z"/>
<path d="M348 316 c-7 -39 -4 -55 8 -44 3 3 4 23 2 44 l-3 39 -7 -39z"/>
<path d="M577 423 c-11 -10 -8 -43 3 -43 6 0 10 11 10 25 0 26 -2 29 -13 18z"/>
<path d="M787 393 c-11 -10 -8 -53 3 -53 6 0 10 14 10 30 0 31 -2 35 -13 23z"/>
</g>
</svg>
