<svg width="29" height="23" viewBox="0 0 29 23" fill="none" xmlns="http://www.w3.org/2000/svg">
<g id="Group">
<path id="Vector" d="M0 11.5112V7.86715C0 3.46302 2.4148 0.936798 6.82729 0.936798C8.84694 0.936798 10.5153 1.4957 11.6569 3.03826C12.7765 1.54041 14.379 0.936798 16.5084 0.936798C20.9209 0.936798 23.2918 3.46302 23.2918 7.84479V11.4888H19.033V8.15778C19.033 5.67626 18.2427 4.53611 16.4426 4.53611C14.6424 4.53611 13.7643 5.67626 13.7643 8.15778V11.4888H9.50552V8.15778C9.50552 5.67626 8.62741 4.53611 6.82729 4.53611C5.02717 4.53611 4.23687 5.67626 4.23687 8.15778V11.4888H0V11.5112Z" fill="white"/>
<path id="Vector_2" d="M28.0995 11.5112V15.1552C28.0995 19.537 25.6847 22.0632 21.2722 22.0632C19.2525 22.0632 17.5841 21.5043 16.4426 19.9617C15.323 21.4596 13.7204 22.0632 11.591 22.0632C7.17853 22.0632 4.80764 19.537 4.80764 15.1552V11.5112H9.06646V14.8422C9.06646 17.3237 9.85676 18.4639 11.6569 18.4639C13.457 18.4639 14.3351 17.3237 14.3351 14.8422V11.5112H18.5939V14.8422C18.5939 17.3237 19.472 18.4639 21.2722 18.4639C23.0723 18.4639 23.8626 17.3237 23.8626 14.8422V11.5112H28.1214H28.0995Z" fill="white"/>
</g>
</svg>
