<svg width="115" height="35" viewBox="0 0 115 35" fill="none" xmlns="http://www.w3.org/2000/svg">
<g clip-path="url(#clip0_1_6)">
<g clip-path="url(#clip1_1_6)">
<path d="M52.59 14.449C52.59 9.00177 48.3992 5.63057 41.7296 5.63057H31.1403C27.7823 2.08557 23.02 0 17.95 0C11.5369 0 5.61213 3.33549 2.40554 8.7494C-0.801048 14.1633 -0.801048 20.8343 2.40554 26.2482C5.61213 31.6621 11.5393 34.9976 17.9525 34.9976C22.9761 34.9976 27.6992 32.9501 31.0524 29.4623H37.468V23.1294H41.2387L45.6737 29.4623H53.0784L47.8057 21.9723C50.8438 20.5415 52.59 17.9535 52.59 14.449ZM27.8995 24.9007H24.268V29.4623H17.5275V24.9007H4.60351V20.5081L15.5714 5.63057H22.7318L12.7775 19.5558H17.7376V15.5037H24.268V19.5558H27.8995V24.9007ZM41.3095 17.9202H37.468V10.9397H41.3095C44.1742 10.9397 45.6053 12.2325 45.6053 14.4466C45.6053 16.6608 44.1742 17.9202 41.3095 17.9202Z" fill="white"/>
<path d="M65.3724 10.704C59.3646 10.704 54.8954 14.6538 54.8954 20.2034C54.8954 25.753 59.262 29.7694 66.0025 29.7694C69.5998 29.7694 72.2544 28.7481 74.0348 26.7744L70.5767 23.2341C69.2848 24.3245 68.0612 24.834 66.21 24.834C64.1146 24.834 62.6469 24.1198 61.9142 22.6223L75.4293 20.1034C75.3951 14.0776 70.8185 10.7064 65.3699 10.7064L65.3724 10.704ZM61.3916 19.3177C61.6016 16.6965 63.1378 15.3013 65.409 15.3013C67.2602 15.3013 68.6229 16.3227 69.0772 17.8559L61.3941 19.3201L61.3916 19.3177Z" fill="white"/>
<path d="M90.8321 10.704C88.4583 10.704 86.3263 11.4873 84.8244 13.0182V11.0088H78.504V29.4623H85.1394V20.5415C85.1394 17.4774 86.7806 16.1846 88.9126 16.1846C90.8346 16.1846 92.0215 17.3084 92.0215 19.9629V29.4623H98.6569V18.9082C98.6569 13.1896 95.2696 10.704 90.8346 10.704H90.8321Z" fill="white"/>
<path d="M113.359 24.1865C112.8 24.5602 112.067 24.765 111.334 24.765C110.147 24.765 109.378 24.015 109.378 22.6532V16.5251H113.674V11.6897H109.378V6.89001H102.743V22.7223C102.743 27.4553 105.537 29.7694 110.392 29.7694C112.138 29.7694 113.85 29.429 115.002 28.7147L113.361 24.1865H113.359Z" fill="white"/>
</g>
</g>
<defs>
<clipPath id="clip0_1_6">
<rect width="115" height="35" fill="white"/>
</clipPath>
<clipPath id="clip1_1_6">
<rect width="115" height="35" fill="white"/>
</clipPath>
</defs>
</svg>
