<svg width="24" height="25" viewBox="0 0 24 25" fill="none" xmlns="http://www.w3.org/2000/svg">
<path id="Vector" d="M23.2034 20.5577L18.2264 15.5807C19.1914 14.0607 19.7494 12.2587 19.7494 10.3297C19.7494 4.90973 15.3404 0.499725 9.92041 0.499725C4.50041 0.499725 0.0924072 4.90973 0.0924072 10.3297C0.0924072 15.7497 4.50041 20.1597 9.92141 20.1597C11.7554 20.1597 13.4734 19.6547 14.9434 18.7767L19.9644 23.7977C22.1084 25.9387 25.3484 22.7017 23.2034 20.5577ZM3.13941 10.3297C3.13941 6.59072 6.18241 3.54773 9.92141 3.54773C13.6604 3.54773 16.7034 6.58973 16.7034 10.3297C16.7034 14.0697 13.6604 17.1117 9.92141 17.1117C6.18241 17.1117 3.13941 14.0687 3.13941 10.3297Z" fill="white"/>
</svg>
