<svg width="32" height="33" viewBox="0 0 32 33" fill="none" xmlns="http://www.w3.org/2000/svg">
<g id="iconmonstr-user-20 1" clip-path="url(#clip0_3_45)">
<path id="Vector" d="M16 0.5C7.164 0.5 0 7.664 0 16.5C0 25.336 7.164 32.5 16 32.5C24.836 32.5 32 25.336 32 16.5C32 7.664 24.836 0.5 16 0.5ZM26.3373 24.9067C25.9893 24.1253 25.2853 23.5853 23.8427 23.252C20.7853 22.5467 17.9387 21.928 19.3187 19.3253C23.512 11.4027 20.4293 7.16667 16 7.16667C11.4827 7.16667 8.47467 11.5653 12.6813 19.3253C14.1027 21.944 11.1507 22.5613 8.15733 23.252C6.712 23.5853 6.01333 24.1293 5.668 24.9133C3.79467 22.616 2.66667 19.688 2.66667 16.5C2.66667 9.148 8.648 3.16667 16 3.16667C23.352 3.16667 29.3333 9.148 29.3333 16.5C29.3333 19.6853 28.2067 22.6107 26.3373 24.9067Z" fill="white"/>
</g>
<defs>
<clipPath id="clip0_3_45">
<rect width="32" height="32" fill="white" transform="translate(0 0.5)"/>
</clipPath>
</defs>
</svg>
